{"title":"Journey to the West Conquering the Demons 2013 BRRip 480p - VYTO","uid":8462484,"size":372200561,"categoryP":"video","categoryS":"movies","magnet":"?xt=urn:btih:6c6b6f396d1d98c813afb64c47435795d206a8e1&amp;dn=Journey+to+the+West+Conquering+the+Demons+2013+BRRip+480p+-+VYTO&amp;tr=udp%3A%2F%2Ftracker.openbittorrent.com%3A80&amp;tr=udp%3A%2F%2Fopen.demonii.com%3A1337&amp;tr=udp%3A%2F%2Ftracker.coppersurfer.tk%3A6969&amp;tr=udp%3A%2F%2Fexodus.desync.com%3A6969","seeders":0,"leechers":0,"uploader":"ValidusVyto","files":-1,"time":1368271873,"description":"_________________________  Visit us at _________________________\n  &lt;a href=&quot;\nhttp://p2pdl.com&quot; rel=&quot;nofollow&quot; target=&quot;_NEW&quot;&gt;\nhttp://p2pdl.com&lt;/a&gt;  ____________________________ &lt;a href=&quot; http://p2pdl.com&quot; rel=&quot;nofollow&quot; target=&quot;_NEW&quot;&gt; http://p2pdl.com&lt;/a&gt;\n\n\nJourney to the West Conquering the Demons 2013 BRRip 480p x264 - VYTO\n\n\nGenre: Adventure | Comedy | Fantasy\nPlot: Demon hunter Chen Xuanzhang (Wen Zhang) believes that he can purify any demon through love.\nHowever, his belief is shaken when his attempt to defeat a demon fish ends in a family's death and\na victory for violent demon hunter Duan (Shu Qi). After getting encouragement from his master, Xuanzhang\nsoldiers on to hunting down a demonic hog with the help of Duan, who has fallen in love with Xuanzhang. \nDespite help from other demon hunters, the hog gets away. As a last resort, Xuanzhang and Duan turn to\nthe help of Sun Wukong (Huang Bo), who has been imprisoned for five centuries for his crimes in heaven.\nDirector: Stephen Chow, Chi-kin Kwok\nStars: Qi Shu, Zhang Wen, Bo Huang.\nRated: N/a\n\n\nInfo: &lt;a href=&quot;\nhttp://www.imdb.com/title/tt2017561/&quot; rel=&quot;nofollow&quot; target=&quot;_NEW&quot;&gt;\nhttp://www.imdb.com/title/tt2017561/&lt;/a&gt;\n\nTrailer:\n\n\nFormat                         : MPEG-4\nFile size                      : 351 MiB\nDuration                       : 1h 49mn\nOverall bit rate mode          : Variable\nOverall bit rate               : 447 Kbps\nSource                         : 720p.BluRay.DTS.x264-HDWinG\n\nVideo\nFormat                         : AVC\nBit rate                       : 404 Kbps\nWidth                          : 720 pixels\nHeight                         : 304 pixels\nDisplay aspect ratio           : 2.35:1\nFrame rate mode                : Constant\nFrame rate                     : 24.000 fps\nStream size                    : 316 MiB (90%)\nWriting library                : x264 core 130 r2273\n\nAudio\nFormat                         : AAC\nBit rate mode                  : Variable\nBit rate                       : 40.0 Kbps\nChannel(s)                     : 2 channels\nChannel positions              : Front: L R\nSampling rate                  : 44.1 KHz\nStream size                    : 31.4 MiB (9%)\nLanguage                       : Chinese\n\nSubtitle                       : Yes(English)\n &lt;a href=&quot;\nhttp://www.ultraimg.com/images/wGvEa.png&quot; rel=&quot;nofollow&quot; target=&quot;_NEW&quot;&gt;\nhttp://www.ultraimg.com/images/wGvEa.png&lt;/a&gt; &lt;a href=&quot;\nhttp://www.ultraimg.com/images/mF9Vq.png&quot; rel=&quot;nofollow&quot; target=&quot;_NEW&quot;&gt;\nhttp://www.ultraimg.com/images/mF9Vq.png&lt;/a&gt; &lt;a href=&quot;\nhttp://www.ultraimg.com/images/zn6k8.png&quot; rel=&quot;nofollow&quot; target=&quot;_NEW&quot;&gt;\nhttp://www.ultraimg.com/images/zn6k8.png&lt;/a&gt; &lt;a href=&quot;\nhttp://www.ultraimg.com/images/U6Xi7.png&quot; rel=&quot;nofollow&quot; target=&quot;_NEW&quot;&gt;\nhttp://www.ultraimg.com/images/U6Xi7.png&lt;/a&gt; &lt;a href=&quot;\nhttp://www.ultraimg.com/images/rNc9n.png&quot; rel=&quot;nofollow&quot; target=&quot;_NEW&quot;&gt;\nhttp://www.ultraimg.com/images/rNc9n.png&lt;/a&gt; &lt;a href=&quot;\nhttp://www.ultraimg.com/images/QjUMN.png&quot; rel=&quot;nofollow&quot; target=&quot;_NEW&quot;&gt;\nhttp://www.ultraimg.com/images/QjUMN.png&lt;/a&gt;\n\n\n----------------------------------------------------------------------------------------------------\n\n\nEncoded using revolutionary 10bit encoding, which enables us to provide you more crispier \nand sharper images at small sizes, just make sure you follow our instructions without a fault.\nRecommend to you to use latest version of VLC player. Install K-Lite Codec Pack or shark007 codecs\nin case of any kind of problem in playback (For non-VLC Media Player users). Alternatively, install\nCore AVC codecs, the fastest decoder that there is coupled with Community Center Codec Pack and play\non Windows Media Player Classic. Check sample to be sure.\nEnjoy!\n\nEncoder Notes:Looking For Early Access To Anything You Can Provide DVDScr, R5, DVDR, BluRay, Direct\nAudio, Music Releases and Seedboxes. We require dedicated servers, so as to do more \nand fast releases of movies.\nIf You Got anything to offer please contact us at &quot;&lt;a class=&quot;__cf_email__&quot; href=&quot;/cdn-cgi/l/email-protection&quot; data-cfemail=&quot;21424e4f5540425561511351454d0f424e4c&quot;&gt;[email&amp;#160;protected]&lt;/a&gt;&lt;script data-cfhash='f9e31' type=&quot;text/javascript&quot;&gt;\n/* &lt;![CDATA[ */!function(){try{var t=&quot;currentScript&quot;in document?document.currentScript:function(){for(var t=document.getElementsByTagName(&quot;script&quot;),e=t.length;e--;)if(t[e].getAttribute(&quot;data-cfhash&quot;))return t[e]}();if(t&amp;&amp;t.previousSibling){var e,r,n,i,c=t.previousSibling,a=c.getAttribute(&quot;data-cfemail&quot;);if(a){for(e=&quot;&quot;,r=parseInt(a.substr(0,2),16),n=2;a.length-n;n+=2)i=parseInt(a.substr(n,2),16)^r,e+=String.fromCharCode(i);e=document.createTextNode(e),c.parentNode.replaceChild(e,c)}t.parentNode.removeChild(t);}}catch(u){}}()/* ]]&gt; */&lt;/script&gt;&quot;.\n\nFace book Fan Page:   &lt;a href=&quot;\nhttp://www.fb.me/p2pdl&quot; rel=&quot;nofollow&quot; target=&quot;_NEW&quot;&gt;\nhttp://www.fb.me/p2pdl&lt;/a&gt;","torrent":{"xt":"urn:btih:6c6b6f396d1d98c813afb64c47435795d206a8e1","amp;dn":"Journey+to+the+West+Conquering+the+Demons+2013+BRRip+480p+-+VYTO","amp;tr":["udp%3A%2F%2Ftracker.openbittorrent.com%3A80","udp%3A%2F%2Fopen.demonii.com%3A1337","udp%3A%2F%2Ftracker.coppersurfer.tk%3A6969","udp%3A%2F%2Fexodus.desync.com%3A6969"],"infoHash":"6c6b6f396d1d98c813afb64c47435795d206a8e1","infoHashBuffer":{"type":"Buffer","data":[108,107,111,57,109,29,152,200,19,175,182,76,71,67,87,149,210,6,168,225]},"announce":[],"urlList":[]}}